HIERARCHY
ROOT joint_Root
{
	OFFSET 0.0 0.0 0.0
	CHANNELS 6 Xposition Yposition Zposition Zrotation Xrotation Yrotation 
	JOINT Hips
	{
		OFFSET -0.726466 93.3139 -2.00062
		CHANNELS 6 Xposition Yposition Zposition Zrotation Xrotation Yrotation 
		JOINT Spine
		{
			OFFSET 15.7357 0.0 0.0
			CHANNELS 6 Xposition Yposition Zposition Zrotation Xrotation Yrotation 
			JOINT Chest
			{
				OFFSET 8.98455 -0.406207 0.0
				CHANNELS 6 Xposition Yposition Zposition Zrotation Xrotation Yrotation 
				JOINT Neck
				{
					OFFSET 16.3773 0.0 0.0
					CHANNELS 6 Xposition Yposition Zposition Zrotation Xrotation Yrotation 
					JOINT Head
					{
						OFFSET 6.45672 0.0 0.0
						CHANNELS 6 Xposition Yposition Zposition Zrotation Xrotation Yrotation 
						End Site
						{
							OFFSET 0.0 0.0 0.0
						}
					}
				}
				JOINT Shoulder_L
				{
					OFFSET 12.9942 -0.242716 4.98039
					CHANNELS 6 Xposition Yposition Zposition Zrotation Xrotation Yrotation 
					JOINT UpperArm_L
					{
						OFFSET 5.34809 0.0 0.0
						CHANNELS 6 Xposition Yposition Zposition Zrotation Xrotation Yrotation 
						JOINT LowerArm_L
						{
							OFFSET 24.3286 1.87007e-05 0.0
							CHANNELS 6 Xposition Yposition Zposition Zrotation Xrotation Yrotation 
							JOINT Hand_L
							{
								OFFSET 22.2916 0.0 0.0
								CHANNELS 6 Xposition Yposition Zposition Zrotation Xrotation Yrotation 
								End Site
								{
									OFFSET 0.0 0.0 0.0
								}
							}
						}
					}
				}
				JOINT Shoulder_R
				{
					OFFSET 12.9945 -0.242716 -4.98039
					CHANNELS 6 Xposition Yposition Zposition Zrotation Xrotation Yrotation 
					JOINT UpperArm_R
					{
						OFFSET -5.34813 0.0 0.0
						CHANNELS 6 Xposition Yposition Zposition Zrotation Xrotation Yrotation 
						JOINT LowerArm_R
						{
							OFFSET -24.3289 0.000322201 0.0
							CHANNELS 6 Xposition Yposition Zposition Zrotation Xrotation Yrotation 
							JOINT Hand_R
							{
								OFFSET -22.2915 -0.000108084 0.0
								CHANNELS 6 Xposition Yposition Zposition Zrotation Xrotation Yrotation 
								End Site
								{
									OFFSET 0.0 0.0 0.0
								}
							}
						}
					}
				}
			}
		}
		JOINT UpperLeg_L
		{
			OFFSET -2.19248 -6.46944 0.0
			CHANNELS 6 Xposition Yposition Zposition Zrotation Xrotation Yrotation 
			JOINT LowerLeg_L
			{
				OFFSET 39.0811 0.0 -1.23785e-05
				CHANNELS 6 Xposition Yposition Zposition Zrotation Xrotation Yrotation 
				JOINT Foot_L
				{
					OFFSET 40.9854 0.0 -1.26872e-05
					CHANNELS 6 Xposition Yposition Zposition Zrotation Xrotation Yrotation 
					JOINT Toes_L
					{
						OFFSET 11.7543 0.0 0.0
						CHANNELS 6 Xposition Yposition Zposition Zrotation Xrotation Yrotation 
						End Site
						{
							OFFSET 0.0 0.0 0.0
						}
					}
				}
			}
		}
		JOINT UpperLeg_R
		{
			OFFSET -2.19251 6.46944 0.0
			CHANNELS 6 Xposition Yposition Zposition Zrotation Xrotation Yrotation 
			JOINT LowerLeg_R
			{
				OFFSET -39.0811 -0.00228153 -0.0401928
				CHANNELS 6 Xposition Yposition Zposition Zrotation Xrotation Yrotation 
				JOINT Foot_R
				{
					OFFSET -40.9854 0.0 0.0
					CHANNELS 6 Xposition Yposition Zposition Zrotation Xrotation Yrotation 
					JOINT Toes_R
					{
						OFFSET -11.7543 0.0 0.0
						CHANNELS 6 Xposition Yposition Zposition Zrotation Xrotation Yrotation 
						End Site
						{
							OFFSET 0.0 0.0 0.0
						}
					}
				}
			}
		}
	}
}
MOTION
Frames:	9
Frame Time:	0.0333333
0.000000 0.000000 0.000000 0.000000 0.000000 -0.000000 -0.172711 92.134900 -1.958240 88.048500 -1.518520 4.274510 15.735700 0.000005 -0.000001 87.222000 86.572100 -86.832800 8.984550 -0.406207 -0.000000 -0.916884 -0.361696 0.775335 16.377300 -0.000001 -0.000001 -0.507217 -2.037540 0.695794 6.456720 -0.000001 -0.000000 -3.050960 -2.862610 0.751731 12.994200 -0.242716 4.980390 -85.794800 -8.918580 -64.626300 5.348090 -0.000007 -0.000001 -59.232900 -52.690600 -55.749500 24.328600 0.000019 0.000005 -4.062560 -6.573740 -31.815300 22.291600 -0.000001 0.000005 21.991200 5.541890 -8.329120 12.994500 -0.242716 -4.980390 91.264800 -2.904050 -66.451900 -5.348130 -0.000001 -0.000004 -52.338500 -47.755700 -66.448800 -24.328900 0.000322 -0.000009 -2.025420 -4.408560 -24.694300 -22.291500 -0.000108 -0.000004 18.980700 5.356360 -1.569030 -2.192480 -6.469440 -0.000000 -169.694000 -17.562500 -2.964680 39.081100 -0.000007 -0.000012 -0.166722 0.405927 22.329100 40.985400 -0.000006 -0.000013 -6.542270 -3.167090 -63.026900 11.754300 -0.000000 0.000003 -0.000096 -0.000990 -16.615600 -2.192510 6.469440 -0.000001 173.662000 21.655100 179.118000 -39.081100 -0.002282 -0.040193 -0.000834 0.011445 19.954600 -40.985400 0.000008 0.000006 -2.660270 0.529035 -62.399100 -11.754300 -0.000006 -0.000006 -0.004373 -0.055267 -18.821400
0.000000 0.000000 0.000000 0.000000 0.000000 -0.000000 -0.190365 92.105100 -1.815910 88.057700 -1.474790 4.527740 15.735700 0.000005 -0.000001 87.812800 86.595100 -87.463300 8.984550 -0.406207 -0.000000 -0.960324 -0.286442 0.696222 16.377300 -0.000001 -0.000001 -0.330621 -2.096760 0.726985 6.456720 -0.000001 -0.000000 -2.779560 -2.878040 0.502917 12.994200 -0.242716 4.980390 -85.728300 -9.051390 -64.602100 5.348090 -0.000007 -0.000001 -58.489300 -51.968100 -58.485400 24.328600 0.000019 0.000005 -4.235050 -6.386070 -33.654400 22.291600 -0.000001 0.000005 22.010100 5.549310 -8.673830 12.994500 -0.242716 -4.980390 91.386000 -3.190150 -66.501500 -5.348130 -0.000001 -0.000004 -53.049200 -47.715300 -69.538600 -24.328900 0.000322 -0.000009 -2.172490 -4.418270 -26.206200 -22.291500 -0.000108 -0.000004 19.239500 5.363410 -1.783890 -2.192480 -6.469440 -0.000000 -169.580000 -17.479900 -2.671570 39.081100 -0.000007 -0.000012 -0.170203 0.411865 22.453000 40.985400 -0.000006 -0.000013 -6.594420 -3.142100 -63.173800 11.754300 -0.000000 0.000003 -0.000103 -0.001057 -16.618100 -2.192510 6.469440 -0.000001 173.503000 21.677900 179.446000 -39.081100 -0.002282 -0.040193 -0.003540 0.018760 20.088300 -40.985400 0.000008 0.000006 -2.781990 0.558489 -62.564700 -11.754300 -0.000006 -0.000006 -0.004320 -0.054725 -18.799400
0.000000 0.000000 0.000000 0.000000 0.000000 -0.000000 -0.223333 92.082300 -1.702200 88.034100 -1.393850 4.722690 15.735700 0.000005 -0.000001 88.571400 86.647100 -88.263800 8.984550 -0.406207 -0.000000 -1.061830 -0.190833 0.613238 16.377300 -0.000001 -0.000001 -0.122307 -2.148120 0.773437 6.456720 -0.000001 -0.000000 -2.545790 -2.807330 0.324734 12.994200 -0.242716 4.980390 -85.603500 -9.300380 -64.557600 5.348090 -0.000007 -0.000001 -58.111500 -51.081600 -62.039100 24.328600 0.000019 0.000005 -4.615870 -6.453030 -35.692400 22.291600 -0.000001 0.000005 21.802000 5.554510 -8.920820 12.994500 -0.242716 -4.980390 91.522900 -3.497140 -66.450500 -5.348130 -0.000001 -0.000004 -53.851300 -47.471600 -73.199700 -24.328900 0.000322 -0.000009 -2.187340 -4.158260 -27.766500 -22.291500 -0.000108 -0.000004 19.377300 5.370090 -1.989280 -2.192480 -6.469440 -0.000000 -169.463000 -17.291000 -2.441130 39.081100 -0.000007 -0.000012 -0.173275 0.417358 22.547000 40.985400 -0.000006 -0.000013 -6.659840 -3.162290 -63.305800 11.754300 -0.000000 0.000003 -0.000114 -0.001148 -16.621500 -2.192510 6.469440 -0.000001 173.442000 21.687900 179.701000 -39.081100 -0.002282 -0.040193 -0.001754 0.013777 20.221500 -40.985400 0.000008 0.000006 -2.678740 0.494897 -62.739700 -11.754300 -0.000006 -0.000006 -0.004154 -0.053031 -18.730300
0.000000 0.000000 0.000000 0.000000 0.000000 -0.000000 -0.244315 92.060500 -1.592370 88.046300 -1.321430 4.937860 15.735700 0.000005 -0.000001 89.149500 86.647800 -88.870900 8.984550 -0.406207 -0.000000 -1.062050 -0.120959 0.555949 16.377300 -0.000001 -0.000001 -0.023236 -2.257300 0.845585 6.456720 -0.000001 -0.000000 -2.485280 -2.884750 0.111228 12.994200 -0.242716 4.980390 -85.492100 -9.474160 -64.406800 5.348090 -0.000007 -0.000001 -58.308500 -50.148700 -66.540600 24.328600 0.000019 0.000005 -4.783780 -6.191900 -37.808300 22.291600 -0.000001 0.000005 21.448700 5.552280 -8.814110 12.994500 -0.242716 -4.980390 91.675500 -3.838390 -66.396200 -5.348130 -0.000001 -0.000004 -55.043700 -47.125500 -77.639100 -24.328900 0.000322 -0.000009 -2.180070 -3.868040 -29.425300 -22.291500 -0.000108 -0.000004 19.394400 5.381160 -2.334840 -2.192480 -6.469440 -0.000000 -169.372000 -17.217400 -2.183770 39.081100 -0.000007 -0.000012 -0.175248 0.420582 22.620700 40.985400 -0.000006 -0.000013 -6.696530 -3.113300 -63.409800 11.754300 -0.000000 0.000003 -0.000110 -0.001117 -16.620300 -2.192510 6.469440 -0.000001 173.322000 21.739500 179.962000 -39.081100 -0.002282 -0.040193 -0.000180 0.009437 20.355200 -40.985400 0.000008 0.000006 -2.673480 0.476969 -62.888100 -11.754300 -0.000006 -0.000006 -0.004442 -0.055962 -18.849700
0.000000 0.000000 0.000000 0.000000 0.000000 -0.000000 -0.279828 92.046700 -1.526080 88.015500 -1.193340 5.075800 15.735700 0.000005 -0.000001 89.066700 86.671700 -88.812000 8.984550 -0.406207 -0.000000 -1.109940 -0.128131 0.508040 16.377300 -0.000001 -0.000001 0.046461 -2.280950 0.854900 6.456720 -0.000001 -0.000000 -2.344910 -2.932650 0.126842 12.994200 -0.242716 4.980390 -85.349300 -9.705100 -64.240000 5.348090 -0.000007 -0.000001 -58.381200 -49.141300 -71.279300 24.328600 0.000019 0.000005 -4.644260 -5.586550 -39.844500 22.291600 -0.000001 0.000005 21.289800 5.551520 -8.778300 12.994500 -0.242716 -4.980390 91.820500 -4.178360 -66.431600 -5.348130 -0.000001 -0.000004 -56.223300 -46.585600 -82.339600 -24.328900 0.000322 -0.000009 -2.155150 -3.566280 -31.160500 -22.291500 -0.000108 -0.000004 19.480300 5.382590 -2.380010 -2.192480 -6.469440 -0.000000 -169.263000 -17.117500 -2.056930 39.081100 -0.000007 -0.000012 -0.178131 0.426166 22.684400 40.985400 -0.000006 -0.000013 -6.727400 -3.038190 -63.459400 11.754300 -0.000000 0.000003 -0.000130 -0.001290 -16.626700 -2.192510 6.469440 -0.000001 173.300000 21.834300 -179.855000 -39.081100 -0.002282 -0.040193 0.003117 0.000546 20.446400 -40.985400 0.000008 0.000006 -2.533100 0.440411 -63.009200 -11.754300 -0.000006 -0.000006 -0.004223 -0.053744 -18.759400
0.000000 0.000000 0.000000 0.000000 0.000000 -0.000000 -0.297783 92.027400 -1.453380 88.020300 -1.133310 5.202040 15.735700 0.000005 -0.000001 89.089000 86.690000 -88.863700 8.984550 -0.406207 -0.000000 -1.146600 -0.122751 0.449102 16.377300 -0.000001 -0.000001 0.134310 -2.303520 0.897229 6.456720 -0.000001 -0.000000 -2.273650 -2.961690 0.093207 12.994200 -0.242716 4.980390 -85.212700 -9.890200 -64.006200 5.348090 -0.000007 -0.000001 -58.023000 -48.087400 -76.145800 24.328600 0.000019 0.000005 -4.542600 -5.136200 -41.589100 22.291600 -0.000001 0.000005 20.974000 5.552750 -8.836760 12.994500 -0.242716 -4.980390 91.996300 -4.588680 -66.458000 -5.348130 -0.000001 -0.000004 -57.334300 -45.826100 -87.235100 -24.328900 0.000322 -0.000009 -2.097020 -3.256600 -32.790800 -22.291500 -0.000108 -0.000004 19.544000 5.393920 -2.740880 -2.192480 -6.469440 -0.000000 -169.190000 -17.126800 -1.909600 39.081100 -0.000007 -0.000012 -0.179591 0.428013 22.762800 40.985400 -0.000006 -0.000013 -6.746540 -2.948670 -63.540700 11.754300 -0.000000 0.000003 -0.000100 -0.001026 -16.616900 -2.192510 6.469440 -0.000001 173.215000 21.836600 -179.682000 -39.081100 -0.002282 -0.040193 0.000265 0.008165 20.520100 -40.985400 0.000008 0.000006 -2.647300 0.456216 -63.107000 -11.754300 -0.000006 -0.000006 -0.004257 -0.054085 -18.773300
0.000000 0.000000 0.000000 0.000000 0.000000 -0.000000 -0.314140 92.023900 -1.387230 87.977000 -1.106350 5.281760 15.735700 0.000005 -0.000001 89.187500 86.706100 -88.969300 8.984550 -0.406207 -0.000000 -1.178610 -0.110422 0.435145 16.377300 -0.000001 -0.000001 0.127521 -2.286980 0.880895 6.456720 -0.000001 -0.000000 -2.178160 -2.961630 0.128662 12.994200 -0.242716 4.980390 -85.063300 -10.066800 -63.703600 5.348090 -0.000007 -0.000001 -57.789600 -47.017000 -81.322900 24.328600 0.000019 0.000005 -3.831510 -4.092050 -43.185200 22.291600 -0.000001 0.000005 20.594300 5.551100 -8.758040 12.994500 -0.242716 -4.980390 92.160400 -4.966530 -66.454600 -5.348130 -0.000001 -0.000004 -57.879400 -45.005300 -92.004900 -24.328900 0.000322 -0.000009 -2.074320 -3.048400 -34.244200 -22.291500 -0.000108 -0.000004 19.708900 5.407870 -3.195050 -2.192480 -6.469440 -0.000000 -169.102000 -17.071700 -1.794030 39.081100 -0.000007 -0.000012 -0.180656 0.430251 22.777100 40.985400 -0.000006 -0.000013 -6.771750 -2.935090 -63.586800 11.754300 -0.000000 0.000003 -0.000118 -0.001186 -16.622900 -2.192510 6.469440 -0.000001 173.245000 21.858900 -179.566000 -39.081100 -0.002282 -0.040193 0.004841 -0.004057 20.553000 -40.985400 0.000008 0.000006 -2.418930 0.396565 -63.178100 -11.754300 -0.000006 -0.000006 -0.004150 -0.052993 -18.728800
0.000000 0.000000 0.000000 0.000000 0.000000 -0.000000 -0.327978 92.016200 -1.344720 88.001100 -1.064330 5.390270 15.735700 0.000005 -0.000001 89.097900 86.698000 -88.909600 8.984550 -0.406207 -0.000000 -1.162580 -0.118614 0.375254 16.377300 -0.000001 -0.000001 0.118954 -2.288110 0.862561 6.456720 -0.000001 -0.000000 -2.151830 -2.973990 0.164254 12.994200 -0.242716 4.980390 -84.885100 -10.333000 -63.479600 5.348090 -0.000007 -0.000001 -57.772700 -46.069900 -86.514100 24.328600 0.000019 0.000005 -3.412370 -3.415730 -45.023900 22.291600 -0.000001 0.000005 20.434900 5.547060 -8.567960 12.994500 -0.242716 -4.980390 92.359800 -5.430990 -66.471500 -5.348130 -0.000001 -0.000004 -58.163500 -44.239600 -96.439100 -24.328900 0.000322 -0.000009 -1.891660 -2.608110 -35.956000 -22.291500 -0.000108 -0.000004 19.699000 5.419180 -3.571940 -2.192480 -6.469440 -0.000000 -169.097000 -16.923200 -1.658020 39.081100 -0.000007 -0.000012 -0.180285 0.429352 22.777700 40.985400 -0.000006 -0.000013 -6.806560 -3.005720 -63.629300 11.754300 -0.000000 0.000003 -0.000129 -0.001279 -16.626400 -2.192510 6.469440 -0.000001 173.159000 21.867300 -179.415000 -39.081100 -0.002282 -0.040193 0.004860 -0.004097 20.593000 -40.985400 0.000008 0.000006 -2.422840 0.426280 -63.247700 -11.754300 -0.000006 -0.000006 -0.004055 -0.052006 -18.688600
0.000000 0.000000 0.000000 0.000000 0.000000 -0.000000 -0.340415 92.015600 -1.326350 87.999000 -1.037860 5.402190 15.735700 0.000005 -0.000001 88.969700 86.706500 -88.799000 8.984550 -0.406207 -0.000000 -1.179810 -0.131732 0.339916 16.377300 -0.000001 -0.000001 0.114230 -2.241080 0.819265 6.456720 -0.000001 -0.000000 -2.137120 -2.993270 0.182263 12.994200 -0.242716 4.980390 -84.715600 -10.569000 -63.239700 5.348090 -0.000007 -0.000001 -57.646500 -45.200400 -91.736700 24.328600 0.000019 0.000005 -3.045920 -2.900500 -46.439800 22.291600 -0.000001 0.000005 20.487700 5.555220 -8.954980 12.994500 -0.242716 -4.980390 92.538100 -5.862960 -66.541700 -5.348130 -0.000001 -0.000004 -58.024500 -43.643300 -100.586000 -24.328900 0.000322 -0.000009 -1.942380 -2.508260 -37.758200 -22.291500 -0.000108 -0.000004 19.606900 5.429940 -3.937170 -2.192480 -6.469440 -0.000000 -169.085000 -16.858300 -1.628220 39.081100 -0.000007 -0.000012 -0.180704 0.430734 22.759600 40.985400 -0.000006 -0.000013 -6.830570 -3.041850 -63.634800 11.754300 -0.000000 0.000003 -0.000105 -0.001069 -16.618500 -2.192510 6.469440 -0.000001 173.170000 21.885200 -179.397000 -39.081100 -0.002282 -0.040193 0.007466 -0.011027 20.604900 -40.985400 0.000008 0.000006 -2.415830 0.390289 -63.265400 -11.754300 -0.000006 -0.000006 -0.004155 -0.053040 -18.730700
